name rise34.3697peak60.0498fall86.3158.mot
datacolumns 19
datarows 11
range 13.99828100000000 14.01494300000000
endheader
time	ground_force1_vx	ground_force1_vy	ground_force1_vz	ground_force1_px	ground_force1_py	ground_force1_pz	ground_force2_vx	ground_force2_vy	ground_force2_vz	ground_force2_px	ground_force2_py	ground_force2_pz	ground_torque1_x	ground_torque1_y	ground_torque1_z	ground_torque2_x	ground_torque2_y	ground_torque2_z	
13.99828100000000	-44.18214700000000	816.99789999999996	61.03562800000000	0.22977900000000	0.00000000000000	0.11584200000000	-8.24462100000000	33.81424500000000	8.02803600000000	0.45154100000000	0.00000000000000	-0.05947100000000	0.00000000000000	36.48435100000000	0.00000000000000	0.00000000000000	6.82631900000000	0.00000000000000	
13.99994300000000	-44.27111000000000	813.37001699999996	60.84145800000000	0.22883900000000	0.00000000000000	0.11584700000000	-9.44587600000000	40.29924700000000	9.27326000000000	0.45061600000000	0.00000000000000	-0.06066000000000	0.00000000000000	36.26501700000000	0.00000000000000	0.00000000000000	7.87196300000000	0.00000000000000	
14.00161100000000	-44.36617500000000	809.60442699999999	60.61660600000000	0.22789800000000	0.00000000000000	0.11584900000000	-10.55381500000000	46.88982400000000	10.45157300000000	0.45006700000000	0.00000000000000	-0.06173000000000	0.00000000000000	36.03588300000000	0.00000000000000	0.00000000000000	8.86373300000000	0.00000000000000	
14.00328300000000	-44.46793600000000	805.70411899999999	60.36096600000000	0.22695800000000	0.00000000000000	0.11584600000000	-11.53481800000000	53.47432300000000	11.53161300000000	0.44983400000000	0.00000000000000	-0.06269700000000	0.00000000000000	35.79730600000000	0.00000000000000	0.00000000000000	9.77673100000000	0.00000000000000	
14.00494400000000	-44.57695200000000	801.67211199999997	60.07449900000000	0.22601700000000	0.00000000000000	0.11583900000000	-12.36325200000000	59.96135500000000	12.48919300000000	0.44986900000000	0.00000000000000	-0.06357600000000	0.00000000000000	35.54966100000000	0.00000000000000	0.00000000000000	10.59184100000000	0.00000000000000	
14.00661300000000	-44.69375100000000	797.51144199999999	59.75723000000000	0.22507900000000	0.00000000000000	0.11582700000000	-13.02239400000000	66.28429199999999	13.30822300000000	0.45013100000000	0.00000000000000	-0.06438000000000	0.00000000000000	35.29333600000000	0.00000000000000	0.00000000000000	11.29646100000000	0.00000000000000	
14.00827800000000	-44.81882400000000	793.22514100000001	59.40925100000000	0.22414200000000	0.00000000000000	0.11581100000000	-13.50448500000000	72.40302200000001	13.98082500000000	0.45058700000000	0.00000000000000	-0.06511800000000	0.00000000000000	35.02873500000000	0.00000000000000	0.00000000000000	11.88459500000000	0.00000000000000	
14.00994400000000	-44.95262200000000	788.81623000000002	59.03072000000000	0.22320800000000	0.00000000000000	0.11579000000000	-13.81004300000000	78.30323799999999	14.50676300000000	0.45120800000000	0.00000000000000	-0.06579900000000	0.00000000000000	34.75626800000000	0.00000000000000	0.00000000000000	12.35639600000000	0.00000000000000	
14.01161400000000	-45.09555100000000	784.28769799999998	58.62185800000000	0.22227900000000	0.00000000000000	0.11576400000000	-13.94662100000000	83.99372500000000	14.89233900000000	0.45197000000000	0.00000000000000	-0.06642900000000	0.00000000000000	34.47635700000000	0.00000000000000	0.00000000000000	12.71728300000000	0.00000000000000	
14.01327800000000	-45.24797500000000	779.64249199999995	58.18295500000000	0.22135400000000	0.00000000000000	0.11573300000000	-13.92720100000000	89.50221200000000	15.14894500000000	0.45285300000000	0.00000000000000	-0.06701500000000	0.00000000000000	34.18943000000000	0.00000000000000	0.00000000000000	12.97676800000000	0.00000000000000	
14.01494300000000	-45.41020700000000	774.88350400000002	57.71436000000000	0.22043400000000	0.00000000000000	0.11569700000000	-13.76842000000000	94.87038800000001	15.29144000000000	0.45383900000000	0.00000000000000	-0.06756200000000	0.00000000000000	33.89592100000000	0.00000000000000	0.00000000000000	13.14715900000000	0.00000000000000	
